<svg xmlns="http://www.w3.org/2000/svg" xmlns:xlink="http://www.w3.org/1999/xlink" width="600" zoomAndPan="magnify" viewBox="0 0 450 3423.749859" height="4565" preserveAspectRatio="xMidYMid meet" version="1.0"><defs><filter x="0%" y="0%" width="100%" height="100%" id="5a431cdd1e"><feColorMatrix values="0 0 0 0 1 0 0 0 0 1 0 0 0 0 1 0 0 0 1 0" color-interpolation-filters="sRGB"/></filter><g/><mask id="8e22341beb"><g filter="url(#5a431cdd1e)"><rect x="-45" width="540" fill="#000000" y="-342.374986" height="4108.499831" fill-opacity="0.69"/></g></mask><clipPath id="74d0365e09"><path d="M 1 0.476562 L 25.132812 0.476562 L 25.132812 19 L 1 19 Z M 1 0.476562 " clip-rule="nonzero"/></clipPath><clipPath id="a15ff17e5c"><rect x="0" width="26" y="0" height="3359"/></clipPath><clipPath id="a2d2ef4653"><rect x="0" width="165" y="0" height="302"/></clipPath><clipPath id="59353e01ce"><rect x="0" width="165" y="0" height="566"/></clipPath><clipPath id="d8339cc279"><path d="M 42 3372 L 449.984375 3372 L 449.984375 3379 L 42 3379 Z M 42 3372 " clip-rule="nonzero"/></clipPath><mask id="84986be70f"><g filter="url(#5a431cdd1e)"><rect x="-45" width="540" fill="#000000" y="-342.374986" height="4108.499831" fill-opacity="0.69"/></g></mask><clipPath id="297b5bbbd6"><path d="M 0.0117188 0.472656 L 407.984375 0.472656 L 407.984375 6.714844 L 0.0117188 6.714844 Z M 0.0117188 0.472656 " clip-rule="nonzero"/></clipPath><clipPath id="c9ab36aadf"><rect x="0" width="408" y="0" height="7"/></clipPath></defs><g mask="url(#8e22341beb)"><g transform="matrix(1, 0, 0, 1, 32, 24)"><g clip-path="url(#a15ff17e5c)"><path stroke-linecap="butt" transform="matrix(0, 0.749945, -0.749945, 0, 16.012013, 0.712122)" fill="none" stroke-linejoin="miter" d="M 22.000029 4.000685 L 4472.049272 4.000685 " stroke="#000000" stroke-width="8" stroke-opacity="1" stroke-miterlimit="4"/><path fill="#000000" d="M 22.011719 15.710938 L 13.011719 3.710938 L 4.011719 15.710938 Z M 22.011719 15.710938 " fill-opacity="1" fill-rule="nonzero"/><g clip-path="url(#74d0365e09)"><path stroke-linecap="round" transform="matrix(0, 0.749945, -0.749945, 0, 16.012013, 0.712122)" fill="none" stroke-linejoin="round" d="M 19.999883 -8.000192 L 3.998713 4.000685 L 19.999883 16.001562 Z M 19.999883 -8.000192 " stroke="#000000" stroke-width="8" stroke-opacity="1" stroke-miterlimit="4"/></g></g></g></g><g fill="#000000" fill-opacity="1"><g transform="translate(215.646989, 803.784678)"><g><path d="M 0 -31.265625 L -10.078125 -28.1875 L -10.078125 -12.75 L 0 -9.671875 L 0 0 L -42.53125 -14.953125 L -42.53125 -25.9375 L 0 -40.9375 Z M -17.625 -26.046875 C -26.757812 -23.210938 -31.925781 -21.613281 -33.125 -21.25 C -34.320312 -20.894531 -35.265625 -20.640625 -35.953125 -20.484375 C -33.484375 -19.847656 -27.375 -18.023438 -17.625 -15.015625 Z M -17.625 -26.046875 "/></g></g></g><g fill="#000000" fill-opacity="1"><g transform="translate(215.646989, 762.843961)"><g><path d="M 0 -13.46875 L 0 -4.640625 L -45.09375 -4.640625 L -45.09375 -13.46875 Z M 0 -13.46875 "/></g></g></g><g fill="#000000" fill-opacity="1"><g transform="translate(215.646989, 744.735009)"><g><path d="M -6.46875 -18.28125 C -6.46875 -19.832031 -6.800781 -21.6875 -7.46875 -23.84375 L -0.890625 -23.84375 C 0.0859375 -21.644531 0.578125 -18.941406 0.578125 -15.734375 C 0.578125 -12.203125 -0.3125 -9.628906 -2.09375 -8.015625 C -3.882812 -6.398438 -6.566406 -5.59375 -10.140625 -5.59375 L -25.765625 -5.59375 L -25.765625 -1.359375 L -29.5 -1.359375 L -32.453125 -6.234375 L -39.296875 -8.78125 L -39.296875 -14.4375 L -32.390625 -14.4375 L -32.390625 -23.5 L -25.765625 -23.5 L -25.765625 -14.4375 L -10.140625 -14.4375 C -8.890625 -14.4375 -7.960938 -14.785156 -7.359375 -15.484375 C -6.765625 -16.191406 -6.46875 -17.125 -6.46875 -18.28125 Z M -6.46875 -18.28125 "/></g></g></g><g fill="#000000" fill-opacity="1"><g transform="translate(215.646989, 718.976836)"><g><path d="M 0 -25.203125 L -4.40625 -23.5 L -4.40625 -23.265625 C -2.53125 -21.773438 -1.226562 -20.242188 -0.5 -18.671875 C 0.21875 -17.097656 0.578125 -15.046875 0.578125 -12.515625 C 0.578125 -9.410156 -0.304688 -6.960938 -2.078125 -5.171875 C -3.859375 -3.378906 -6.390625 -2.484375 -9.671875 -2.484375 C -13.117188 -2.484375 -15.65625 -3.6875 -17.28125 -6.09375 C -18.914062 -8.5 -19.820312 -12.128906 -20 -16.984375 L -20.171875 -22.609375 L -21.59375 -22.609375 C -24.875 -22.609375 -26.515625 -20.925781 -26.515625 -17.5625 C -26.515625 -14.96875 -25.734375 -11.925781 -24.171875 -8.4375 L -30.140625 -5.5 C -32.085938 -9.226562 -33.0625 -13.363281 -33.0625 -17.90625 C -33.0625 -22.25 -32.113281 -25.578125 -30.21875 -27.890625 C -28.320312 -30.210938 -25.445312 -31.375 -21.59375 -31.375 L 0 -31.375 Z M -15.015625 -22.609375 L -14.890625 -19.1875 C -14.816406 -16.613281 -14.351562 -14.695312 -13.5 -13.4375 C -12.65625 -12.1875 -11.363281 -11.5625 -9.625 -11.5625 C -7.125 -11.5625 -5.875 -12.988281 -5.875 -15.84375 C -5.875 -17.894531 -6.460938 -19.535156 -7.640625 -20.765625 C -8.828125 -21.992188 -10.394531 -22.609375 -12.34375 -22.609375 Z M -15.015625 -22.609375 "/></g></g></g><g fill="#000000" fill-opacity="1"><g transform="translate(215.646989, 683.1356)"><g/></g></g><g fill="#000000" fill-opacity="1"><g transform="translate(215.646989, 667.72126)"><g><path d="M -22.421875 -14.3125 L -22.421875 -17.265625 C -22.421875 -20.023438 -22.96875 -22.09375 -24.0625 -23.46875 C -25.15625 -24.84375 -26.742188 -25.53125 -28.828125 -25.53125 C -30.929688 -25.53125 -32.484375 -24.953125 -33.484375 -23.796875 C -34.492188 -22.648438 -35 -20.851562 -35 -18.40625 L -35 -14.3125 Z M -29.15625 -34.59375 C -24.59375 -34.59375 -21.101562 -33.164062 -18.6875 -30.3125 C -16.269531 -27.46875 -15.0625 -23.421875 -15.0625 -18.171875 L -15.0625 -14.3125 L 0 -14.3125 L 0 -5.328125 L -42.359375 -5.328125 L -42.359375 -18.859375 C -42.359375 -24.003906 -41.253906 -27.910156 -39.046875 -30.578125 C -36.835938 -33.253906 -33.539062 -34.59375 -29.15625 -34.59375 Z M -29.15625 -34.59375 "/></g></g></g><g fill="#000000" fill-opacity="1"><g transform="translate(215.646989, 630.460281)"><g><path d="M -26.71875 -18.046875 C -26.71875 -16.171875 -26.125 -14.703125 -24.9375 -13.640625 C -23.75 -12.578125 -22.0625 -11.972656 -19.875 -11.828125 L -19.875 -24.21875 C -22.0625 -24.1875 -23.75 -23.617188 -24.9375 -22.515625 C -26.125 -21.410156 -26.71875 -19.921875 -26.71875 -18.046875 Z M 0.578125 -19.296875 C 0.578125 -14.078125 -0.859375 -10 -3.734375 -7.0625 C -6.617188 -4.132812 -10.695312 -2.671875 -15.96875 -2.671875 C -21.394531 -2.671875 -25.585938 -4.023438 -28.546875 -6.734375 C -31.515625 -9.453125 -33 -13.207031 -33 -18 C -33 -22.570312 -31.695312 -26.132812 -29.09375 -28.6875 C -26.488281 -31.238281 -22.882812 -32.515625 -18.28125 -32.515625 L -14 -32.515625 L -14 -11.625 C -11.488281 -11.71875 -9.523438 -12.457031 -8.109375 -13.84375 C -6.703125 -15.238281 -6 -17.191406 -6 -19.703125 C -6 -21.648438 -6.203125 -23.492188 -6.609375 -25.234375 C -7.015625 -26.972656 -7.660156 -28.789062 -8.546875 -30.6875 L -1.703125 -30.6875 C -0.929688 -29.144531 -0.359375 -27.492188 0.015625 -25.734375 C 0.390625 -23.972656 0.578125 -21.828125 0.578125 -19.296875 Z M 0.578125 -19.296875 "/></g></g></g><g fill="#000000" fill-opacity="1"><g transform="translate(215.646989, 595.401351)"><g><path d="M -33 -22.71875 C -33 -23.914062 -32.914062 -24.910156 -32.75 -25.703125 L -24.453125 -25.03125 C -24.648438 -24.320312 -24.75 -23.453125 -24.75 -22.421875 C -24.75 -19.609375 -24.023438 -17.410156 -22.578125 -15.828125 C -21.128906 -14.253906 -19.097656 -13.46875 -16.484375 -13.46875 L 0 -13.46875 L 0 -4.640625 L -32.390625 -4.640625 L -32.390625 -11.328125 L -26.953125 -12.640625 L -26.953125 -13.0625 C -28.765625 -14.070312 -30.222656 -15.429688 -31.328125 -17.140625 C -32.441406 -18.847656 -33 -20.707031 -33 -22.71875 Z M -33 -22.71875 "/></g></g></g><g fill="#000000" fill-opacity="1"><g transform="translate(215.646989, 568.455232)"><g><path d="M -25.765625 -22.546875 L -25.765625 -14.890625 L 0 -14.890625 L 0 -6.0625 L -25.765625 -6.0625 L -25.765625 -1.1875 L -30.015625 -1.1875 L -32.390625 -6.0625 L -34.765625 -6.0625 C -38.460938 -6.0625 -41.160156 -6.96875 -42.859375 -8.78125 C -44.554688 -10.59375 -45.40625 -13.5 -45.40625 -17.5 C -45.40625 -20.550781 -44.953125 -23.265625 -44.046875 -25.640625 L -37.546875 -23.390625 C -38.109375 -21.609375 -38.390625 -19.960938 -38.390625 -18.453125 C -38.390625 -17.203125 -38.015625 -16.296875 -37.265625 -15.734375 C -36.523438 -15.171875 -35.578125 -14.890625 -34.421875 -14.890625 L -32.390625 -14.890625 L -32.390625 -22.546875 Z M -25.765625 -22.546875 "/></g></g></g><g fill="#000000" fill-opacity="1"><g transform="translate(215.646989, 545.478594)"><g><path d="M -16.25 -11.671875 C -13.050781 -11.671875 -10.628906 -12.195312 -8.984375 -13.25 C -7.335938 -14.3125 -6.515625 -16.03125 -6.515625 -18.40625 C -6.515625 -20.757812 -7.332031 -22.453125 -8.96875 -23.484375 C -10.601562 -24.515625 -13.03125 -25.03125 -16.25 -25.03125 C -19.457031 -25.03125 -21.863281 -24.507812 -23.46875 -23.46875 C -25.070312 -22.425781 -25.875 -20.71875 -25.875 -18.34375 C -25.875 -15.988281 -25.078125 -14.285156 -23.484375 -13.234375 C -21.890625 -12.191406 -19.476562 -11.671875 -16.25 -11.671875 Z M -16.25 -34.078125 C -10.976562 -34.078125 -6.851562 -32.6875 -3.875 -29.90625 C -0.90625 -27.125 0.578125 -23.25 0.578125 -18.28125 C 0.578125 -15.175781 -0.0976562 -12.429688 -1.453125 -10.046875 C -2.816406 -7.671875 -4.773438 -5.847656 -7.328125 -4.578125 C -9.878906 -3.304688 -12.851562 -2.671875 -16.25 -2.671875 C -21.550781 -2.671875 -25.664062 -4.050781 -28.59375 -6.8125 C -31.53125 -9.570312 -33 -13.453125 -33 -18.453125 C -33 -21.566406 -32.320312 -24.3125 -30.96875 -26.6875 C -29.625 -29.0625 -27.6875 -30.882812 -25.15625 -32.15625 C -22.625 -33.4375 -19.65625 -34.078125 -16.25 -34.078125 Z M -16.25 -34.078125 "/></g></g></g><g fill="#000000" fill-opacity="1"><g transform="translate(215.646989, 508.739154)"><g><path d="M -33 -22.71875 C -33 -23.914062 -32.914062 -24.910156 -32.75 -25.703125 L -24.453125 -25.03125 C -24.648438 -24.320312 -24.75 -23.453125 -24.75 -22.421875 C -24.75 -19.609375 -24.023438 -17.410156 -22.578125 -15.828125 C -21.128906 -14.253906 -19.097656 -13.46875 -16.484375 -13.46875 L 0 -13.46875 L 0 -4.640625 L -32.390625 -4.640625 L -32.390625 -11.328125 L -26.953125 -12.640625 L -26.953125 -13.0625 C -28.765625 -14.070312 -30.222656 -15.429688 -31.328125 -17.140625 C -32.441406 -18.847656 -33 -20.707031 -33 -22.71875 Z M -33 -22.71875 "/></g></g></g><g fill="#000000" fill-opacity="1"><g transform="translate(215.646989, 481.793034)"><g><path d="M 0 -33.640625 L 0 -24.796875 L -18.921875 -24.796875 C -21.253906 -24.796875 -23.003906 -24.40625 -24.171875 -23.625 C -25.347656 -22.84375 -25.9375 -21.613281 -25.9375 -19.9375 C -25.9375 -17.675781 -25.101562 -16.03125 -23.4375 -15 C -21.78125 -13.976562 -19.046875 -13.46875 -15.234375 -13.46875 L 0 -13.46875 L 0 -4.640625 L -32.390625 -4.640625 L -32.390625 -11.390625 L -28.25 -12.578125 L -28.25 -13.0625 C -29.738281 -13.9375 -30.898438 -15.191406 -31.734375 -16.828125 C -32.578125 -18.472656 -33 -20.359375 -33 -22.484375 C -33 -27.335938 -31.414062 -30.625 -28.25 -32.34375 L -28.25 -33.125 C -29.757812 -33.988281 -30.925781 -35.265625 -31.75 -36.953125 C -32.582031 -38.648438 -33 -40.5625 -33 -42.6875 C -33 -46.351562 -32.054688 -49.128906 -30.171875 -51.015625 C -28.296875 -52.898438 -25.28125 -53.84375 -21.125 -53.84375 L 0 -53.84375 L 0 -44.96875 L -18.921875 -44.96875 C -21.253906 -44.96875 -23.003906 -44.578125 -24.171875 -43.796875 C -25.347656 -43.015625 -25.9375 -41.785156 -25.9375 -40.109375 C -25.9375 -37.941406 -25.160156 -36.320312 -23.609375 -35.25 C -22.066406 -34.175781 -19.613281 -33.640625 -16.25 -33.640625 Z M 0 -33.640625 "/></g></g></g><g fill="#000000" fill-opacity="1"><g transform="translate(215.646989, 423.525671)"><g><path d="M 0 -25.203125 L -4.40625 -23.5 L -4.40625 -23.265625 C -2.53125 -21.773438 -1.226562 -20.242188 -0.5 -18.671875 C 0.21875 -17.097656 0.578125 -15.046875 0.578125 -12.515625 C 0.578125 -9.410156 -0.304688 -6.960938 -2.078125 -5.171875 C -3.859375 -3.378906 -6.390625 -2.484375 -9.671875 -2.484375 C -13.117188 -2.484375 -15.65625 -3.6875 -17.28125 -6.09375 C -18.914062 -8.5 -19.820312 -12.128906 -20 -16.984375 L -20.171875 -22.609375 L -21.59375 -22.609375 C -24.875 -22.609375 -26.515625 -20.925781 -26.515625 -17.5625 C -26.515625 -14.96875 -25.734375 -11.925781 -24.171875 -8.4375 L -30.140625 -5.5 C -32.085938 -9.226562 -33.0625 -13.363281 -33.0625 -17.90625 C -33.0625 -22.25 -32.113281 -25.578125 -30.21875 -27.890625 C -28.320312 -30.210938 -25.445312 -31.375 -21.59375 -31.375 L 0 -31.375 Z M -15.015625 -22.609375 L -14.890625 -19.1875 C -14.816406 -16.613281 -14.351562 -14.695312 -13.5 -13.4375 C -12.65625 -12.1875 -11.363281 -11.5625 -9.625 -11.5625 C -7.125 -11.5625 -5.875 -12.988281 -5.875 -15.84375 C -5.875 -17.894531 -6.460938 -19.535156 -7.640625 -20.765625 C -8.828125 -21.992188 -10.394531 -22.609375 -12.34375 -22.609375 Z M -15.015625 -22.609375 "/></g></g></g><g fill="#000000" fill-opacity="1"><g transform="translate(215.646989, 387.684435)"><g><path d="M 0 -34.546875 L 0 -25.703125 L -18.921875 -25.703125 C -21.253906 -25.703125 -23.003906 -25.285156 -24.171875 -24.453125 C -25.347656 -23.617188 -25.9375 -22.296875 -25.9375 -20.484375 C -25.9375 -18.015625 -25.109375 -16.226562 -23.453125 -15.125 C -21.804688 -14.019531 -19.066406 -13.46875 -15.234375 -13.46875 L 0 -13.46875 L 0 -4.640625 L -32.390625 -4.640625 L -32.390625 -11.390625 L -28.25 -12.578125 L -28.25 -13.0625 C -29.8125 -14.050781 -30.992188 -15.410156 -31.796875 -17.140625 C -32.597656 -18.867188 -33 -20.832031 -33 -23.03125 C -33 -26.800781 -31.976562 -29.660156 -29.9375 -31.609375 C -27.90625 -33.566406 -24.96875 -34.546875 -21.125 -34.546875 Z M 0 -34.546875 "/></g></g></g><g fill="#000000" fill-opacity="1"><g transform="translate(215.646989, 348.684997)"><g><path d="M 0.578125 -17.796875 C 0.578125 -7.710938 -4.957031 -2.671875 -16.03125 -2.671875 C -21.53125 -2.671875 -25.734375 -4.039062 -28.640625 -6.78125 C -31.546875 -9.519531 -33 -13.453125 -33 -18.578125 C -33 -22.328125 -32.265625 -25.6875 -30.796875 -28.65625 L -23.96875 -26.046875 C -24.519531 -24.660156 -24.972656 -23.367188 -25.328125 -22.171875 C -25.691406 -20.972656 -25.875 -19.773438 -25.875 -18.578125 C -25.875 -13.972656 -22.609375 -11.671875 -16.078125 -11.671875 C -9.742188 -11.671875 -6.578125 -13.972656 -6.578125 -18.578125 C -6.578125 -20.273438 -6.800781 -21.847656 -7.25 -23.296875 C -7.707031 -24.742188 -8.421875 -26.191406 -9.390625 -27.640625 L -1.828125 -27.640625 C -0.921875 -26.210938 -0.296875 -24.769531 0.046875 -23.3125 C 0.398438 -21.851562 0.578125 -20.015625 0.578125 -17.796875 Z M 0.578125 -17.796875 "/></g></g></g><g fill="#000000" fill-opacity="1"><g transform="translate(215.646989, 318.175035)"><g><path d="M -26.71875 -18.046875 C -26.71875 -16.171875 -26.125 -14.703125 -24.9375 -13.640625 C -23.75 -12.578125 -22.0625 -11.972656 -19.875 -11.828125 L -19.875 -24.21875 C -22.0625 -24.1875 -23.75 -23.617188 -24.9375 -22.515625 C -26.125 -21.410156 -26.71875 -19.921875 -26.71875 -18.046875 Z M 0.578125 -19.296875 C 0.578125 -14.078125 -0.859375 -10 -3.734375 -7.0625 C -6.617188 -4.132812 -10.695312 -2.671875 -15.96875 -2.671875 C -21.394531 -2.671875 -25.585938 -4.023438 -28.546875 -6.734375 C -31.515625 -9.453125 -33 -13.207031 -33 -18 C -33 -22.570312 -31.695312 -26.132812 -29.09375 -28.6875 C -26.488281 -31.238281 -22.882812 -32.515625 -18.28125 -32.515625 L -14 -32.515625 L -14 -11.625 C -11.488281 -11.71875 -9.523438 -12.457031 -8.109375 -13.84375 C -6.703125 -15.238281 -6 -17.191406 -6 -19.703125 C -6 -21.648438 -6.203125 -23.492188 -6.609375 -25.234375 C -7.015625 -26.972656 -7.660156 -28.789062 -8.546875 -30.6875 L -1.703125 -30.6875 C -0.929688 -29.144531 -0.359375 -27.492188 0.015625 -25.734375 C 0.390625 -23.972656 0.578125 -21.828125 0.578125 -19.296875 Z M 0.578125 -19.296875 "/></g></g></g><g fill="#000000" fill-opacity="1"><g transform="translate(298.140958, 727.161373)"><g><path d="M -16.25 -2.375 C -21.375 -2.375 -26.164062 -3.125 -30.625 -4.625 C -35.09375 -6.125 -39.003906 -8.28125 -42.359375 -11.09375 L -42.359375 -15.796875 C -38.628906 -13.015625 -34.535156 -10.921875 -30.078125 -9.515625 C -25.617188 -8.117188 -21.03125 -7.421875 -16.3125 -7.421875 C -11.675781 -7.421875 -7.144531 -8.132812 -2.71875 -9.5625 C 1.695312 -10.988281 5.734375 -13.046875 9.390625 -15.734375 L 9.390625 -11.09375 C 6.109375 -8.257812 2.273438 -6.097656 -2.109375 -4.609375 C -6.492188 -3.117188 -11.207031 -2.375 -16.25 -2.375 Z M -16.25 -2.375 "/></g></g></g><g fill="#000000" fill-opacity="1"><g transform="translate(298.140958, 709.602934)"><g><path d="M 0 -32.453125 L -13.46875 -27.1875 L -13.46875 -10.203125 L 0 -4.984375 L 0 0 L -42.53125 -16.75 L -42.53125 -20.890625 L 0 -37.546875 Z M -17.90625 -25.640625 L -31.03125 -20.71875 C -32.695312 -20.082031 -34.734375 -19.425781 -37.140625 -18.75 C -35.285156 -18.320312 -33.25 -17.710938 -31.03125 -16.921875 L -17.90625 -11.9375 Z M -17.90625 -25.640625 "/></g></g></g><g fill="#000000" fill-opacity="1"><g transform="translate(298.140958, 672.052212)"><g><path d="M 0 -18.859375 L 0 -13.9375 L -37.984375 -13.9375 L -37.984375 -0.515625 L -42.359375 -0.515625 L -42.359375 -32.28125 L -37.984375 -32.28125 L -37.984375 -18.859375 Z M 0 -18.859375 "/></g></g></g><g fill="#000000" fill-opacity="1"><g transform="translate(298.140958, 639.224305)"><g><path d="M 0 -29.4375 L 0 -5.828125 L -42.359375 -5.828125 L -42.359375 -29.4375 L -37.984375 -29.4375 L -37.984375 -10.75 L -24.34375 -10.75 L -24.34375 -28.3125 L -20 -28.3125 L -20 -10.75 L -4.40625 -10.75 L -4.40625 -29.4375 Z M 0 -29.4375 "/></g></g></g><g fill="#000000" fill-opacity="1"><g transform="translate(298.140958, 606.222552)"><g/></g></g><g fill="#000000" fill-opacity="1"><g transform="translate(298.140958, 590.808212)"><g><path d="M 0.578125 -18.515625 C 0.578125 -13.816406 -0.847656 -10.109375 -3.703125 -7.390625 C -6.566406 -4.679688 -10.539062 -3.328125 -15.625 -3.328125 C -20.738281 -3.328125 -24.800781 -4.585938 -27.8125 -7.109375 C -30.832031 -9.628906 -32.34375 -13.015625 -32.34375 -17.265625 C -32.34375 -21.242188 -31.03125 -24.390625 -28.40625 -26.703125 C -25.789062 -29.023438 -22.335938 -30.1875 -18.046875 -30.1875 L -15.015625 -30.1875 L -15.015625 -8.3125 C -11.285156 -8.414062 -8.453125 -9.359375 -6.515625 -11.140625 C -4.585938 -12.929688 -3.625 -15.445312 -3.625 -18.6875 C -3.625 -22.101562 -4.335938 -25.484375 -5.765625 -28.828125 L -1.484375 -28.828125 C -0.742188 -27.128906 -0.21875 -25.519531 0.09375 -24 C 0.414062 -22.488281 0.578125 -20.660156 0.578125 -18.515625 Z M -28.3125 -17.21875 C -28.3125 -14.664062 -27.476562 -12.628906 -25.8125 -11.109375 C -24.15625 -9.597656 -21.859375 -8.707031 -18.921875 -8.4375 L -18.921875 -25.03125 C -21.953125 -25.03125 -24.273438 -24.351562 -25.890625 -23 C -27.503906 -21.65625 -28.3125 -19.726562 -28.3125 -17.21875 Z M -28.3125 -17.21875 "/></g></g></g><g fill="#000000" fill-opacity="1"><g transform="translate(298.140958, 557.516716)"><g/></g></g><g fill="#000000" fill-opacity="1"><g transform="translate(298.140958, 542.102376)"><g><path d="M 0 -42.796875 L 0 -37.9375 L -28.375 -29.375 C -29.625 -28.976562 -31.203125 -28.523438 -33.109375 -28.015625 C -35.023438 -27.515625 -36.175781 -27.253906 -36.5625 -27.234375 C -34.019531 -26.804688 -31.226562 -26.128906 -28.1875 -25.203125 L 0 -16.921875 L 0 -12.046875 L -42.359375 -0.78125 L -42.359375 -6 L -16.203125 -12.6875 C -12.523438 -13.613281 -9.203125 -14.289062 -6.234375 -14.71875 C -9.765625 -15.238281 -13.222656 -16.007812 -16.609375 -17.03125 L -42.359375 -24.625 L -42.359375 -29.84375 L -16.375 -37.8125 C -13.375 -38.738281 -9.992188 -39.519531 -6.234375 -40.15625 C -8.972656 -40.53125 -12.3125 -41.226562 -16.25 -42.25 L -42.359375 -48.90625 L -42.359375 -54.125 Z M 0 -42.796875 "/></g></g></g><g fill="#000000" fill-opacity="1"><g transform="translate(298.140958, 487.167062)"><g><path d="M 0 -42.796875 L 0 -37.9375 L -28.375 -29.375 C -29.625 -28.976562 -31.203125 -28.523438 -33.109375 -28.015625 C -35.023438 -27.515625 -36.175781 -27.253906 -36.5625 -27.234375 C -34.019531 -26.804688 -31.226562 -26.128906 -28.1875 -25.203125 L 0 -16.921875 L 0 -12.046875 L -42.359375 -0.78125 L -42.359375 -6 L -16.203125 -12.6875 C -12.523438 -13.613281 -9.203125 -14.289062 -6.234375 -14.71875 C -9.765625 -15.238281 -13.222656 -16.007812 -16.609375 -17.03125 L -42.359375 -24.625 L -42.359375 -29.84375 L -16.375 -37.8125 C -13.375 -38.738281 -9.992188 -39.519531 -6.234375 -40.15625 C -8.972656 -40.53125 -12.3125 -41.226562 -16.25 -42.25 L -42.359375 -48.90625 L -42.359375 -54.125 Z M 0 -42.796875 "/></g></g></g><g fill="#000000" fill-opacity="1"><g transform="translate(298.140958, 432.231747)"><g><path d="M 0 -42.796875 L 0 -37.9375 L -28.375 -29.375 C -29.625 -28.976562 -31.203125 -28.523438 -33.109375 -28.015625 C -35.023438 -27.515625 -36.175781 -27.253906 -36.5625 -27.234375 C -34.019531 -26.804688 -31.226562 -26.128906 -28.1875 -25.203125 L 0 -16.921875 L 0 -12.046875 L -42.359375 -0.78125 L -42.359375 -6 L -16.203125 -12.6875 C -12.523438 -13.613281 -9.203125 -14.289062 -6.234375 -14.71875 C -9.765625 -15.238281 -13.222656 -16.007812 -16.609375 -17.03125 L -42.359375 -24.625 L -42.359375 -29.84375 L -16.375 -37.8125 C -13.375 -38.738281 -9.992188 -39.519531 -6.234375 -40.15625 C -8.972656 -40.53125 -12.3125 -41.226562 -16.25 -42.25 L -42.359375 -48.90625 L -42.359375 -54.125 Z M 0 -42.796875 "/></g></g></g><g fill="#000000" fill-opacity="1"><g transform="translate(298.140958, 377.296432)"><g><path d="M -16.25 -15.1875 C -11.175781 -15.1875 -6.445312 -14.4375 -2.0625 -12.9375 C 2.320312 -11.4375 6.140625 -9.28125 9.390625 -6.46875 L 9.390625 -1.828125 C 5.753906 -4.515625 1.722656 -6.570312 -2.703125 -8 C -7.140625 -9.425781 -11.675781 -10.140625 -16.3125 -10.140625 C -21.03125 -10.140625 -25.617188 -9.4375 -30.078125 -8.03125 C -34.535156 -6.632812 -38.628906 -4.546875 -42.359375 -1.765625 L -42.359375 -6.46875 C -38.984375 -9.300781 -35.054688 -11.460938 -30.578125 -12.953125 C -26.109375 -14.441406 -21.332031 -15.1875 -16.25 -15.1875 Z M -16.25 -15.1875 "/></g></g></g><g transform="matrix(1, 0, 0, 1, 159, 1484)"><g clip-path="url(#a2d2ef4653)"><g fill="#000000" fill-opacity="1"><g transform="translate(63.332051, 301.361853)"><g><path d="M -23.5625 -14.3125 L -23.5625 -17.21875 C -23.5625 -20.0625 -24.035156 -22.15625 -24.984375 -23.5 C -25.929688 -24.851562 -27.421875 -25.53125 -29.453125 -25.53125 C -31.460938 -25.53125 -32.890625 -24.835938 -33.734375 -23.453125 C -34.585938 -22.078125 -35.015625 -19.941406 -35.015625 -17.046875 L -35.015625 -14.3125 Z M -16.265625 -14.3125 L 0 -14.3125 L 0 -5.328125 L -42.375 -5.328125 L -42.375 -17.6875 C -42.375 -23.4375 -41.320312 -27.691406 -39.21875 -30.453125 C -37.125 -33.222656 -33.945312 -34.609375 -29.6875 -34.609375 C -27.1875 -34.609375 -24.960938 -33.921875 -23.015625 -32.546875 C -21.078125 -31.171875 -19.5625 -29.226562 -18.46875 -26.71875 C -8.9375 -33.09375 -2.78125 -37.25 0 -39.1875 L 0 -29.21875 L -16.265625 -19.09375 Z M -16.265625 -14.3125 "/></g></g><g transform="translate(63.332051, 262.178392)"><g><path d="M 0 -25.21875 L -4.40625 -23.5 L -4.40625 -23.28125 C -2.53125 -21.789062 -1.226562 -20.253906 -0.5 -18.671875 C 0.21875 -17.097656 0.578125 -15.046875 0.578125 -12.515625 C 0.578125 -9.410156 -0.304688 -6.960938 -2.078125 -5.171875 C -3.859375 -3.390625 -6.394531 -2.5 -9.6875 -2.5 C -13.125 -2.5 -15.65625 -3.695312 -17.28125 -6.09375 C -18.914062 -8.5 -19.820312 -12.128906 -20 -16.984375 L -20.171875 -22.609375 L -21.59375 -22.609375 C -24.875 -22.609375 -26.515625 -20.925781 -26.515625 -17.5625 C -26.515625 -14.976562 -25.734375 -11.9375 -24.171875 -8.4375 L -30.140625 -5.5 C -32.097656 -9.226562 -33.078125 -13.363281 -33.078125 -17.90625 C -33.078125 -22.257812 -32.128906 -25.59375 -30.234375 -27.90625 C -28.335938 -30.226562 -25.457031 -31.390625 -21.59375 -31.390625 L 0 -31.390625 Z M -15.015625 -22.609375 L -14.890625 -19.1875 C -14.816406 -16.613281 -14.351562 -14.695312 -13.5 -13.4375 C -12.65625 -12.1875 -11.363281 -11.5625 -9.625 -11.5625 C -7.132812 -11.5625 -5.890625 -12.992188 -5.890625 -15.859375 C -5.890625 -17.898438 -6.476562 -19.535156 -7.65625 -20.765625 C -8.832031 -21.992188 -10.394531 -22.609375 -12.34375 -22.609375 Z M -15.015625 -22.609375 "/></g></g><g transform="translate(63.332051, 226.327843)"><g><path d="M 0 -34.546875 L 0 -25.703125 L -18.921875 -25.703125 C -21.265625 -25.703125 -23.019531 -25.285156 -24.1875 -24.453125 C -25.351562 -23.628906 -25.9375 -22.304688 -25.9375 -20.484375 C -25.9375 -18.015625 -25.109375 -16.226562 -23.453125 -15.125 C -21.804688 -14.03125 -19.070312 -13.484375 -15.25 -13.484375 L 0 -13.484375 L 0 -4.640625 L -32.40625 -4.640625 L -32.40625 -11.390625 L -28.265625 -12.578125 L -28.265625 -13.078125 C -29.828125 -14.054688 -31.007812 -15.410156 -31.8125 -17.140625 C -32.613281 -18.867188 -33.015625 -20.835938 -33.015625 -23.046875 C -33.015625 -26.804688 -31.992188 -29.660156 -29.953125 -31.609375 C -27.910156 -33.566406 -24.96875 -34.546875 -21.125 -34.546875 Z M 0 -34.546875 "/></g></g><g transform="translate(63.332051, 187.318272)"><g><path d="M 0.578125 -22.4375 C 0.578125 -18.625 -0.800781 -15.640625 -3.5625 -13.484375 L -3.5625 -13.015625 C -0.851562 -13.328125 0.707031 -13.484375 1.125 -13.484375 L 14.265625 -13.484375 L 14.265625 -4.640625 L -32.40625 -4.640625 L -32.40625 -11.828125 L -28.203125 -13.078125 L -28.203125 -13.484375 C -31.410156 -15.546875 -33.015625 -18.609375 -33.015625 -22.671875 C -33.015625 -26.492188 -31.535156 -29.484375 -28.578125 -31.640625 C -25.617188 -33.804688 -21.515625 -34.890625 -16.265625 -34.890625 C -12.804688 -34.890625 -9.800781 -34.382812 -7.25 -33.375 C -4.695312 -32.363281 -2.753906 -30.921875 -1.421875 -29.046875 C -0.0859375 -27.171875 0.578125 -24.96875 0.578125 -22.4375 Z M -25.9375 -19.828125 C -25.9375 -17.640625 -25.265625 -16.039062 -23.921875 -15.03125 C -22.578125 -14.03125 -20.363281 -13.515625 -17.28125 -13.484375 L -16.3125 -13.484375 C -12.832031 -13.484375 -10.335938 -14 -8.828125 -15.03125 C -7.328125 -16.0625 -6.578125 -17.695312 -6.578125 -19.9375 C -6.578125 -23.894531 -9.84375 -25.875 -16.375 -25.875 C -19.5625 -25.875 -21.953125 -25.382812 -23.546875 -24.40625 C -25.140625 -23.4375 -25.9375 -21.910156 -25.9375 -19.828125 Z M -25.9375 -19.828125 "/></g></g><g transform="translate(63.332051, 149.757794)"><g><path d="M 0 -25.21875 L -4.40625 -23.5 L -4.40625 -23.28125 C -2.53125 -21.789062 -1.226562 -20.253906 -0.5 -18.671875 C 0.21875 -17.097656 0.578125 -15.046875 0.578125 -12.515625 C 0.578125 -9.410156 -0.304688 -6.960938 -2.078125 -5.171875 C -3.859375 -3.390625 -6.394531 -2.5 -9.6875 -2.5 C -13.125 -2.5 -15.65625 -3.695312 -17.28125 -6.09375 C -18.914062 -8.5 -19.820312 -12.128906 -20 -16.984375 L -20.171875 -22.609375 L -21.59375 -22.609375 C -24.875 -22.609375 -26.515625 -20.925781 -26.515625 -17.5625 C -26.515625 -14.976562 -25.734375 -11.9375 -24.171875 -8.4375 L -30.140625 -5.5 C -32.097656 -9.226562 -33.078125 -13.363281 -33.078125 -17.90625 C -33.078125 -22.257812 -32.128906 -25.59375 -30.234375 -27.90625 C -28.335938 -30.226562 -25.457031 -31.390625 -21.59375 -31.390625 L 0 -31.390625 Z M -15.015625 -22.609375 L -14.890625 -19.1875 C -14.816406 -16.613281 -14.351562 -14.695312 -13.5 -13.4375 C -12.65625 -12.1875 -11.363281 -11.5625 -9.625 -11.5625 C -7.132812 -11.5625 -5.890625 -12.992188 -5.890625 -15.859375 C -5.890625 -17.898438 -6.476562 -19.535156 -7.65625 -20.765625 C -8.832031 -21.992188 -10.394531 -22.609375 -12.34375 -22.609375 Z M -15.015625 -22.609375 "/></g></g><g transform="translate(63.332051, 113.907245)"><g><path d="M 0 -34.546875 L 0 -25.703125 L -18.921875 -25.703125 C -21.265625 -25.703125 -23.019531 -25.285156 -24.1875 -24.453125 C -25.351562 -23.628906 -25.9375 -22.304688 -25.9375 -20.484375 C -25.9375 -18.015625 -25.109375 -16.226562 -23.453125 -15.125 C -21.804688 -14.03125 -19.070312 -13.484375 -15.25 -13.484375 L 0 -13.484375 L 0 -4.640625 L -32.40625 -4.640625 L -32.40625 -11.390625 L -28.265625 -12.578125 L -28.265625 -13.078125 C -29.828125 -14.054688 -31.007812 -15.410156 -31.8125 -17.140625 C -32.613281 -18.867188 -33.015625 -20.835938 -33.015625 -23.046875 C -33.015625 -26.804688 -31.992188 -29.660156 -29.953125 -31.609375 C -27.910156 -33.566406 -24.96875 -34.546875 -21.125 -34.546875 Z M 0 -34.546875 "/></g></g><g transform="translate(63.332051, 74.897674)"><g><path d="M 0.578125 -14.890625 C 0.578125 -11.085938 -0.898438 -8.097656 -3.859375 -5.921875 C -6.816406 -3.753906 -10.910156 -2.671875 -16.140625 -2.671875 C -21.453125 -2.671875 -25.59375 -3.773438 -28.5625 -5.984375 C -31.53125 -8.191406 -33.015625 -11.238281 -33.015625 -15.125 C -33.015625 -19.207031 -31.429688 -22.320312 -28.265625 -24.46875 L -28.265625 -24.75 C -30.671875 -24.300781 -32.820312 -24.078125 -34.71875 -24.078125 L -45.09375 -24.078125 L -45.09375 -32.953125 L 0 -32.953125 L 0 -26.171875 L -4.203125 -24.46875 L -4.203125 -24.078125 C -1.015625 -22.078125 0.578125 -19.015625 0.578125 -14.890625 Z M -6.46875 -18 C -6.46875 -20.257812 -7.125 -21.914062 -8.4375 -22.96875 C -9.75 -24.019531 -11.976562 -24.59375 -15.125 -24.6875 L -16.09375 -24.6875 C -19.5625 -24.6875 -22.050781 -24.148438 -23.5625 -23.078125 C -25.070312 -22.015625 -25.828125 -20.273438 -25.828125 -17.859375 C -25.828125 -15.878906 -24.988281 -14.34375 -23.3125 -13.25 C -21.644531 -12.164062 -19.21875 -11.625 -16.03125 -11.625 C -12.84375 -11.625 -10.453125 -12.171875 -8.859375 -13.265625 C -7.265625 -14.367188 -6.46875 -15.945312 -6.46875 -18 Z M -6.46875 -18 "/></g></g><g transform="translate(63.332051, 37.337196)"><g><path d="M -16.265625 -11.6875 C -13.054688 -11.6875 -10.628906 -12.210938 -8.984375 -13.265625 C -7.335938 -14.316406 -6.515625 -16.03125 -6.515625 -18.40625 C -6.515625 -20.757812 -7.332031 -22.453125 -8.96875 -23.484375 C -10.601562 -24.523438 -13.035156 -25.046875 -16.265625 -25.046875 C -19.472656 -25.046875 -21.875 -24.519531 -23.46875 -23.46875 C -25.070312 -22.425781 -25.875 -20.71875 -25.875 -18.34375 C -25.875 -15.988281 -25.078125 -14.289062 -23.484375 -13.25 C -21.890625 -12.207031 -19.484375 -11.6875 -16.265625 -11.6875 Z M -16.265625 -34.078125 C -10.984375 -34.078125 -6.851562 -32.6875 -3.875 -29.90625 C -0.90625 -27.125 0.578125 -23.25 0.578125 -18.28125 C 0.578125 -15.175781 -0.0976562 -12.4375 -1.453125 -10.0625 C -2.816406 -7.6875 -4.773438 -5.859375 -7.328125 -4.578125 C -9.878906 -3.304688 -12.859375 -2.671875 -16.265625 -2.671875 C -21.554688 -2.671875 -25.671875 -4.050781 -28.609375 -6.8125 C -31.546875 -9.570312 -33.015625 -13.457031 -33.015625 -18.46875 C -33.015625 -21.570312 -32.335938 -24.3125 -30.984375 -26.6875 C -29.628906 -29.070312 -27.6875 -30.898438 -25.15625 -32.171875 C -22.625 -33.441406 -19.660156 -34.078125 -16.265625 -34.078125 Z M -16.265625 -34.078125 "/></g></g></g><g fill="#000000" fill-opacity="1"><g transform="translate(146.1815, 224.415038)"><g><path d="M -16.265625 -2.375 C -21.378906 -2.375 -26.164062 -3.125 -30.625 -4.625 C -35.09375 -6.125 -39.007812 -8.28125 -42.375 -11.09375 L -42.375 -15.796875 C -38.644531 -13.015625 -34.546875 -10.921875 -30.078125 -9.515625 C -25.617188 -8.117188 -21.03125 -7.421875 -16.3125 -7.421875 C -11.675781 -7.421875 -7.144531 -8.132812 -2.71875 -9.5625 C 1.695312 -10.988281 5.734375 -13.046875 9.390625 -15.734375 L 9.390625 -11.09375 C 6.109375 -8.257812 2.273438 -6.097656 -2.109375 -4.609375 C -6.492188 -3.117188 -11.210938 -2.375 -16.265625 -2.375 Z M -16.265625 -2.375 "/></g></g><g transform="translate(146.1815, 206.852036)"><g><path d="M 0 -32.46875 L -13.484375 -27.1875 L -13.484375 -10.203125 L 0 -4.984375 L 0 0 L -42.546875 -16.75 L -42.546875 -20.890625 L 0 -37.5625 Z M -17.90625 -25.65625 L -31.046875 -20.71875 C -32.703125 -20.082031 -34.738281 -19.425781 -37.15625 -18.75 C -35.300781 -18.320312 -33.265625 -17.710938 -31.046875 -16.921875 L -17.90625 -11.9375 Z M -17.90625 -25.65625 "/></g></g><g transform="translate(146.1815, 169.291558)"><g><path d="M -42.375 -5.828125 L -42.375 -17.796875 C -42.375 -23.421875 -41.53125 -27.488281 -39.84375 -30 C -38.164062 -32.507812 -35.507812 -33.765625 -31.875 -33.765625 C -29.363281 -33.765625 -27.289062 -33.0625 -25.65625 -31.65625 C -24.03125 -30.257812 -22.972656 -28.21875 -22.484375 -25.53125 L -22.203125 -25.53125 C -21.097656 -31.96875 -17.71875 -35.1875 -12.0625 -35.1875 C -8.269531 -35.1875 -5.3125 -33.90625 -3.1875 -31.34375 C -1.0625 -28.78125 0 -25.203125 0 -20.609375 L 0 -5.828125 Z M -24.234375 -10.75 L -24.234375 -18.875 C -24.234375 -22.34375 -24.773438 -24.84375 -25.859375 -26.375 C -26.953125 -27.90625 -28.796875 -28.671875 -31.390625 -28.671875 C -33.765625 -28.671875 -35.476562 -27.816406 -36.53125 -26.109375 C -37.582031 -24.410156 -38.109375 -21.707031 -38.109375 -18 L -38.109375 -10.75 Z M -20.0625 -10.75 L -4.203125 -10.75 L -4.203125 -19.59375 C -4.203125 -23.007812 -4.863281 -25.582031 -6.1875 -27.3125 C -7.507812 -29.039062 -9.582031 -29.90625 -12.40625 -29.90625 C -15.03125 -29.90625 -16.960938 -29.019531 -18.203125 -27.25 C -19.441406 -25.488281 -20.0625 -22.800781 -20.0625 -19.1875 Z M -20.0625 -10.75 "/></g></g><g transform="translate(146.1815, 130.832643)"><g><path d="M -30.03125 -32.6875 C -25.738281 -32.6875 -22.4375 -31.222656 -20.125 -28.296875 C -17.820312 -25.367188 -16.671875 -21.179688 -16.671875 -15.734375 L -16.671875 -10.75 L 0 -10.75 L 0 -5.828125 L -42.375 -5.828125 L -42.375 -16.8125 C -42.375 -27.394531 -38.257812 -32.6875 -30.03125 -32.6875 Z M -20.890625 -10.75 L -20.890625 -15.1875 C -20.890625 -19.550781 -21.59375 -22.707031 -23 -24.65625 C -24.414062 -26.613281 -26.679688 -27.59375 -29.796875 -27.59375 C -32.597656 -27.59375 -34.679688 -26.671875 -36.046875 -24.828125 C -37.421875 -22.992188 -38.109375 -20.140625 -38.109375 -16.265625 L -38.109375 -10.75 Z M -20.890625 -10.75 "/></g></g><g transform="translate(146.1815, 95.098021)"><g><path d="M -16.265625 -15.1875 C -11.179688 -15.1875 -6.445312 -14.4375 -2.0625 -12.9375 C 2.320312 -11.4375 6.140625 -9.28125 9.390625 -6.46875 L 9.390625 -1.828125 C 5.753906 -4.515625 1.722656 -6.570312 -2.703125 -8 C -7.140625 -9.425781 -11.675781 -10.140625 -16.3125 -10.140625 C -21.03125 -10.140625 -25.617188 -9.4375 -30.078125 -8.03125 C -34.546875 -6.632812 -38.644531 -4.546875 -42.375 -1.765625 L -42.375 -6.46875 C -38.988281 -9.300781 -35.0625 -11.460938 -30.59375 -12.953125 C -26.125 -14.441406 -21.347656 -15.1875 -16.265625 -15.1875 Z M -16.265625 -15.1875 "/></g></g></g></g></g><g transform="matrix(1, 0, 0, 1, 159, 2416)"><g clip-path="url(#59353e01ce)"><g fill="#000000" fill-opacity="1"><g transform="translate(63.332051, 565.225199)"><g><path d="M -42.375 -5.328125 L -42.375 -18.515625 C -42.375 -24.523438 -41.519531 -28.882812 -39.8125 -31.59375 C -38.101562 -34.3125 -35.382812 -35.671875 -31.65625 -35.671875 C -29.125 -35.671875 -27.046875 -35.078125 -25.421875 -33.890625 C -23.796875 -32.703125 -22.816406 -31.125 -22.484375 -29.15625 L -22.203125 -29.15625 C -21.597656 -31.84375 -20.472656 -33.78125 -18.828125 -34.96875 C -17.191406 -36.15625 -15.015625 -36.75 -12.296875 -36.75 C -8.429688 -36.75 -5.414062 -35.351562 -3.25 -32.5625 C -1.082031 -29.769531 0 -25.976562 0 -21.1875 L 0 -5.328125 Z M -25.59375 -14.3125 L -25.59375 -19.53125 C -25.59375 -21.96875 -25.96875 -23.734375 -26.71875 -24.828125 C -27.476562 -25.921875 -28.726562 -26.46875 -30.46875 -26.46875 C -32.082031 -26.46875 -33.242188 -25.867188 -33.953125 -24.671875 C -34.660156 -23.484375 -35.015625 -21.609375 -35.015625 -19.046875 L -35.015625 -14.3125 Z M -18.46875 -14.3125 L -7.421875 -14.3125 L -7.421875 -20.171875 C -7.421875 -22.648438 -7.894531 -24.476562 -8.84375 -25.65625 C -9.789062 -26.832031 -11.238281 -27.421875 -13.1875 -27.421875 C -16.707031 -27.421875 -18.46875 -24.910156 -18.46875 -19.890625 Z M -18.46875 -14.3125 "/></g></g><g transform="translate(63.332051, 525.346173)"><g><path d="M 0 -25.21875 L -4.40625 -23.5 L -4.40625 -23.28125 C -2.53125 -21.789062 -1.226562 -20.253906 -0.5 -18.671875 C 0.21875 -17.097656 0.578125 -15.046875 0.578125 -12.515625 C 0.578125 -9.410156 -0.304688 -6.960938 -2.078125 -5.171875 C -3.859375 -3.390625 -6.394531 -2.5 -9.6875 -2.5 C -13.125 -2.5 -15.65625 -3.695312 -17.28125 -6.09375 C -18.914062 -8.5 -19.820312 -12.128906 -20 -16.984375 L -20.171875 -22.609375 L -21.59375 -22.609375 C -24.875 -22.609375 -26.515625 -20.925781 -26.515625 -17.5625 C -26.515625 -14.976562 -25.734375 -11.9375 -24.171875 -8.4375 L -30.140625 -5.5 C -32.097656 -9.226562 -33.078125 -13.363281 -33.078125 -17.90625 C -33.078125 -22.257812 -32.128906 -25.59375 -30.234375 -27.90625 C -28.335938 -30.226562 -25.457031 -31.390625 -21.59375 -31.390625 L 0 -31.390625 Z M -15.015625 -22.609375 L -14.890625 -19.1875 C -14.816406 -16.613281 -14.351562 -14.695312 -13.5 -13.4375 C -12.65625 -12.1875 -11.363281 -11.5625 -9.625 -11.5625 C -7.132812 -11.5625 -5.890625 -12.992188 -5.890625 -15.859375 C -5.890625 -17.898438 -6.476562 -19.535156 -7.65625 -20.765625 C -8.832031 -21.992188 -10.394531 -22.609375 -12.34375 -22.609375 Z M -15.015625 -22.609375 "/></g></g><g transform="translate(63.332051, 489.495624)"><g><path d="M -40.78125 -4.265625 C -43.65625 -4.265625 -45.09375 -5.867188 -45.09375 -9.078125 C -45.09375 -12.285156 -43.65625 -13.890625 -40.78125 -13.890625 C -39.40625 -13.890625 -38.335938 -13.488281 -37.578125 -12.6875 C -36.816406 -11.882812 -36.4375 -10.679688 -36.4375 -9.078125 C -36.4375 -5.867188 -37.882812 -4.265625 -40.78125 -4.265625 Z M 0 -13.484375 L 0 -4.640625 L -32.40625 -4.640625 L -32.40625 -13.484375 Z M 0 -13.484375 "/></g></g><g transform="translate(63.332051, 471.381967)"><g><path d="M -16.546875 -11.28125 L -32.40625 -0.84375 L -32.40625 -10.875 L -22.078125 -17.15625 L -32.40625 -23.5 L -32.40625 -33.53125 L -16.546875 -22.984375 L 0 -34.03125 L 0 -23.96875 L -11.09375 -17.15625 L 0 -10.3125 L 0 -0.296875 Z M -16.546875 -11.28125 "/></g></g><g transform="translate(63.332051, 437.067456)"><g><path d="M 0 -25.21875 L -4.40625 -23.5 L -4.40625 -23.28125 C -2.53125 -21.789062 -1.226562 -20.253906 -0.5 -18.671875 C 0.21875 -17.097656 0.578125 -15.046875 0.578125 -12.515625 C 0.578125 -9.410156 -0.304688 -6.960938 -2.078125 -5.171875 C -3.859375 -3.390625 -6.394531 -2.5 -9.6875 -2.5 C -13.125 -2.5 -15.65625 -3.695312 -17.28125 -6.09375 C -18.914062 -8.5 -19.820312 -12.128906 -20 -16.984375 L -20.171875 -22.609375 L -21.59375 -22.609375 C -24.875 -22.609375 -26.515625 -20.925781 -26.515625 -17.5625 C -26.515625 -14.976562 -25.734375 -11.9375 -24.171875 -8.4375 L -30.140625 -5.5 C -32.097656 -9.226562 -33.078125 -13.363281 -33.078125 -17.90625 C -33.078125 -22.257812 -32.128906 -25.59375 -30.234375 -27.90625 C -28.335938 -30.226562 -25.457031 -31.390625 -21.59375 -31.390625 L 0 -31.390625 Z M -15.015625 -22.609375 L -14.890625 -19.1875 C -14.816406 -16.613281 -14.351562 -14.695312 -13.5 -13.4375 C -12.65625 -12.1875 -11.363281 -11.5625 -9.625 -11.5625 C -7.132812 -11.5625 -5.890625 -12.992188 -5.890625 -15.859375 C -5.890625 -17.898438 -6.476562 -19.535156 -7.65625 -20.765625 C -8.832031 -21.992188 -10.394531 -22.609375 -12.34375 -22.609375 Z M -15.015625 -22.609375 "/></g></g><g transform="translate(63.332051, 401.216907)"><g/></g><g transform="translate(63.332051, 385.798563)"><g><path d="M -22.4375 -14.3125 L -22.4375 -17.28125 C -22.4375 -20.039062 -22.976562 -22.101562 -24.0625 -23.46875 C -25.15625 -24.84375 -26.75 -25.53125 -28.84375 -25.53125 C -30.945312 -25.53125 -32.5 -24.953125 -33.5 -23.796875 C -34.507812 -22.648438 -35.015625 -20.851562 -35.015625 -18.40625 L -35.015625 -14.3125 Z M -29.15625 -34.609375 C -24.59375 -34.609375 -21.101562 -33.179688 -18.6875 -30.328125 C -16.28125 -27.484375 -15.078125 -23.429688 -15.078125 -18.171875 L -15.078125 -14.3125 L 0 -14.3125 L 0 -5.328125 L -42.375 -5.328125 L -42.375 -18.875 C -42.375 -24.007812 -41.265625 -27.914062 -39.046875 -30.59375 C -36.835938 -33.269531 -33.539062 -34.609375 -29.15625 -34.609375 Z M -29.15625 -34.609375 "/></g></g><g transform="translate(63.332051, 348.527903)"><g><path d="M -26.71875 -18.0625 C -26.71875 -16.1875 -26.125 -14.71875 -24.9375 -13.65625 C -23.75 -12.59375 -22.066406 -11.984375 -19.890625 -11.828125 L -19.890625 -24.234375 C -22.066406 -24.191406 -23.75 -23.617188 -24.9375 -22.515625 C -26.125 -21.421875 -26.71875 -19.9375 -26.71875 -18.0625 Z M 0.578125 -19.296875 C 0.578125 -14.085938 -0.859375 -10.015625 -3.734375 -7.078125 C -6.617188 -4.140625 -10.695312 -2.671875 -15.96875 -2.671875 C -21.394531 -2.671875 -25.59375 -4.023438 -28.5625 -6.734375 C -31.53125 -9.453125 -33.015625 -13.207031 -33.015625 -18 C -33.015625 -22.582031 -31.707031 -26.144531 -29.09375 -28.6875 C -26.488281 -31.238281 -22.882812 -32.515625 -18.28125 -32.515625 L -14 -32.515625 L -14 -11.625 C -11.488281 -11.71875 -9.523438 -12.457031 -8.109375 -13.84375 C -6.703125 -15.238281 -6 -17.191406 -6 -19.703125 C -6 -21.660156 -6.203125 -23.507812 -6.609375 -25.25 C -7.015625 -26.988281 -7.660156 -28.800781 -8.546875 -30.6875 L -1.703125 -30.6875 C -0.929688 -29.144531 -0.359375 -27.492188 0.015625 -25.734375 C 0.390625 -23.972656 0.578125 -21.828125 0.578125 -19.296875 Z M 0.578125 -19.296875 "/></g></g><g transform="translate(63.332051, 313.459864)"><g><path d="M -33.015625 -22.71875 C -33.015625 -23.914062 -32.925781 -24.910156 -32.75 -25.703125 L -24.46875 -25.046875 C -24.65625 -24.328125 -24.75 -23.457031 -24.75 -22.4375 C -24.75 -19.613281 -24.023438 -17.414062 -22.578125 -15.84375 C -21.128906 -14.269531 -19.097656 -13.484375 -16.484375 -13.484375 L 0 -13.484375 L 0 -4.640625 L -32.40625 -4.640625 L -32.40625 -11.328125 L -26.953125 -12.640625 L -26.953125 -13.078125 C -28.773438 -14.078125 -30.238281 -15.429688 -31.34375 -17.140625 C -32.457031 -18.847656 -33.015625 -20.707031 -33.015625 -22.71875 Z M -33.015625 -22.71875 "/></g></g><g transform="translate(63.332051, 286.506743)"><g><path d="M -25.765625 -22.546875 L -25.765625 -14.890625 L 0 -14.890625 L 0 -6.0625 L -25.765625 -6.0625 L -25.765625 -1.1875 L -30.03125 -1.1875 L -32.40625 -6.0625 L -34.78125 -6.0625 C -38.46875 -6.0625 -41.160156 -6.96875 -42.859375 -8.78125 C -44.566406 -10.59375 -45.421875 -13.5 -45.421875 -17.5 C -45.421875 -20.550781 -44.96875 -23.269531 -44.0625 -25.65625 L -37.5625 -23.390625 C -38.125 -21.609375 -38.40625 -19.96875 -38.40625 -18.46875 C -38.40625 -17.207031 -38.03125 -16.296875 -37.28125 -15.734375 C -36.539062 -15.171875 -35.59375 -14.890625 -34.4375 -14.890625 L -32.40625 -14.890625 L -32.40625 -22.546875 Z M -25.765625 -22.546875 "/></g></g><g transform="translate(63.332051, 263.524136)"><g><path d="M -16.265625 -11.6875 C -13.054688 -11.6875 -10.628906 -12.210938 -8.984375 -13.265625 C -7.335938 -14.316406 -6.515625 -16.03125 -6.515625 -18.40625 C -6.515625 -20.757812 -7.332031 -22.453125 -8.96875 -23.484375 C -10.601562 -24.523438 -13.035156 -25.046875 -16.265625 -25.046875 C -19.472656 -25.046875 -21.875 -24.519531 -23.46875 -23.46875 C -25.070312 -22.425781 -25.875 -20.71875 -25.875 -18.34375 C -25.875 -15.988281 -25.078125 -14.289062 -23.484375 -13.25 C -21.890625 -12.207031 -19.484375 -11.6875 -16.265625 -11.6875 Z M -16.265625 -34.078125 C -10.984375 -34.078125 -6.851562 -32.6875 -3.875 -29.90625 C -0.90625 -27.125 0.578125 -23.25 0.578125 -18.28125 C 0.578125 -15.175781 -0.0976562 -12.4375 -1.453125 -10.0625 C -2.816406 -7.6875 -4.773438 -5.859375 -7.328125 -4.578125 C -9.878906 -3.304688 -12.859375 -2.671875 -16.265625 -2.671875 C -21.554688 -2.671875 -25.671875 -4.050781 -28.609375 -6.8125 C -31.546875 -9.570312 -33.015625 -13.457031 -33.015625 -18.46875 C -33.015625 -21.570312 -32.335938 -24.3125 -30.984375 -26.6875 C -29.628906 -29.070312 -27.6875 -30.898438 -25.15625 -32.171875 C -22.625 -33.441406 -19.660156 -34.078125 -16.265625 -34.078125 Z M -16.265625 -34.078125 "/></g></g><g transform="translate(63.332051, 226.77515)"><g><path d="M -33.015625 -22.71875 C -33.015625 -23.914062 -32.925781 -24.910156 -32.75 -25.703125 L -24.46875 -25.046875 C -24.65625 -24.328125 -24.75 -23.457031 -24.75 -22.4375 C -24.75 -19.613281 -24.023438 -17.414062 -22.578125 -15.84375 C -21.128906 -14.269531 -19.097656 -13.484375 -16.484375 -13.484375 L 0 -13.484375 L 0 -4.640625 L -32.40625 -4.640625 L -32.40625 -11.328125 L -26.953125 -12.640625 L -26.953125 -13.078125 C -28.773438 -14.078125 -30.238281 -15.429688 -31.34375 -17.140625 C -32.457031 -18.847656 -33.015625 -20.707031 -33.015625 -22.71875 Z M -33.015625 -22.71875 "/></g></g><g transform="translate(63.332051, 199.822029)"><g><path d="M 0 -33.65625 L 0 -24.8125 L -18.921875 -24.8125 C -21.265625 -24.8125 -23.019531 -24.421875 -24.1875 -23.640625 C -25.351562 -22.859375 -25.9375 -21.625 -25.9375 -19.9375 C -25.9375 -17.675781 -25.101562 -16.035156 -23.4375 -15.015625 C -21.78125 -13.992188 -19.050781 -13.484375 -15.25 -13.484375 L 0 -13.484375 L 0 -4.640625 L -32.40625 -4.640625 L -32.40625 -11.390625 L -28.265625 -12.578125 L -28.265625 -13.078125 C -29.742188 -13.941406 -30.90625 -15.191406 -31.75 -16.828125 C -32.59375 -18.472656 -33.015625 -20.359375 -33.015625 -22.484375 C -33.015625 -27.335938 -31.429688 -30.625 -28.265625 -32.34375 L -28.265625 -33.125 C -29.765625 -34 -30.929688 -35.28125 -31.765625 -36.96875 C -32.597656 -38.65625 -33.015625 -40.5625 -33.015625 -42.6875 C -33.015625 -46.363281 -32.070312 -49.144531 -30.1875 -51.03125 C -28.300781 -52.914062 -25.28125 -53.859375 -21.125 -53.859375 L 0 -53.859375 L 0 -44.984375 L -18.921875 -44.984375 C -21.265625 -44.984375 -23.019531 -44.59375 -24.1875 -43.8125 C -25.351562 -43.03125 -25.9375 -41.796875 -25.9375 -40.109375 C -25.9375 -37.953125 -25.160156 -36.335938 -23.609375 -35.265625 C -22.066406 -34.191406 -19.617188 -33.65625 -16.265625 -33.65625 Z M 0 -33.65625 "/></g></g><g transform="translate(63.332051, 141.539528)"><g><path d="M 0 -25.21875 L -4.40625 -23.5 L -4.40625 -23.28125 C -2.53125 -21.789062 -1.226562 -20.253906 -0.5 -18.671875 C 0.21875 -17.097656 0.578125 -15.046875 0.578125 -12.515625 C 0.578125 -9.410156 -0.304688 -6.960938 -2.078125 -5.171875 C -3.859375 -3.390625 -6.394531 -2.5 -9.6875 -2.5 C -13.125 -2.5 -15.65625 -3.695312 -17.28125 -6.09375 C -18.914062 -8.5 -19.820312 -12.128906 -20 -16.984375 L -20.171875 -22.609375 L -21.59375 -22.609375 C -24.875 -22.609375 -26.515625 -20.925781 -26.515625 -17.5625 C -26.515625 -14.976562 -25.734375 -11.9375 -24.171875 -8.4375 L -30.140625 -5.5 C -32.097656 -9.226562 -33.078125 -13.363281 -33.078125 -17.90625 C -33.078125 -22.257812 -32.128906 -25.59375 -30.234375 -27.90625 C -28.335938 -30.226562 -25.457031 -31.390625 -21.59375 -31.390625 L 0 -31.390625 Z M -15.015625 -22.609375 L -14.890625 -19.1875 C -14.816406 -16.613281 -14.351562 -14.695312 -13.5 -13.4375 C -12.65625 -12.1875 -11.363281 -11.5625 -9.625 -11.5625 C -7.132812 -11.5625 -5.890625 -12.992188 -5.890625 -15.859375 C -5.890625 -17.898438 -6.476562 -19.535156 -7.65625 -20.765625 C -8.832031 -21.992188 -10.394531 -22.609375 -12.34375 -22.609375 Z M -15.015625 -22.609375 "/></g></g><g transform="translate(63.332051, 105.688979)"><g><path d="M 0 -34.546875 L 0 -25.703125 L -18.921875 -25.703125 C -21.265625 -25.703125 -23.019531 -25.285156 -24.1875 -24.453125 C -25.351562 -23.628906 -25.9375 -22.304688 -25.9375 -20.484375 C -25.9375 -18.015625 -25.109375 -16.226562 -23.453125 -15.125 C -21.804688 -14.03125 -19.070312 -13.484375 -15.25 -13.484375 L 0 -13.484375 L 0 -4.640625 L -32.40625 -4.640625 L -32.40625 -11.390625 L -28.265625 -12.578125 L -28.265625 -13.078125 C -29.828125 -14.054688 -31.007812 -15.410156 -31.8125 -17.140625 C -32.613281 -18.867188 -33.015625 -20.835938 -33.015625 -23.046875 C -33.015625 -26.804688 -31.992188 -29.660156 -29.953125 -31.609375 C -27.910156 -33.566406 -24.96875 -34.546875 -21.125 -34.546875 Z M 0 -34.546875 "/></g></g><g transform="translate(63.332051, 66.679409)"><g><path d="M 0.578125 -17.796875 C 0.578125 -7.710938 -4.957031 -2.671875 -16.03125 -2.671875 C -21.53125 -2.671875 -25.734375 -4.039062 -28.640625 -6.78125 C -31.554688 -9.519531 -33.015625 -13.453125 -33.015625 -18.578125 C -33.015625 -22.328125 -32.28125 -25.691406 -30.8125 -28.671875 L -23.96875 -26.0625 C -24.53125 -24.664062 -24.988281 -23.367188 -25.34375 -22.171875 C -25.695312 -20.972656 -25.875 -19.773438 -25.875 -18.578125 C -25.875 -13.984375 -22.613281 -11.6875 -16.09375 -11.6875 C -9.75 -11.6875 -6.578125 -13.984375 -6.578125 -18.578125 C -6.578125 -20.273438 -6.800781 -21.847656 -7.25 -23.296875 C -7.707031 -24.753906 -8.421875 -26.207031 -9.390625 -27.65625 L -1.828125 -27.65625 C -0.921875 -26.21875 -0.296875 -24.769531 0.046875 -23.3125 C 0.398438 -21.851562 0.578125 -20.015625 0.578125 -17.796875 Z M 0.578125 -17.796875 "/></g></g><g transform="translate(63.332051, 36.16152)"><g><path d="M -26.71875 -18.0625 C -26.71875 -16.1875 -26.125 -14.71875 -24.9375 -13.65625 C -23.75 -12.59375 -22.066406 -11.984375 -19.890625 -11.828125 L -19.890625 -24.234375 C -22.066406 -24.191406 -23.75 -23.617188 -24.9375 -22.515625 C -26.125 -21.421875 -26.71875 -19.9375 -26.71875 -18.0625 Z M 0.578125 -19.296875 C 0.578125 -14.085938 -0.859375 -10.015625 -3.734375 -7.078125 C -6.617188 -4.140625 -10.695312 -2.671875 -15.96875 -2.671875 C -21.394531 -2.671875 -25.59375 -4.023438 -28.5625 -6.734375 C -31.53125 -9.453125 -33.015625 -13.207031 -33.015625 -18 C -33.015625 -22.582031 -31.707031 -26.144531 -29.09375 -28.6875 C -26.488281 -31.238281 -22.882812 -32.515625 -18.28125 -32.515625 L -14 -32.515625 L -14 -11.625 C -11.488281 -11.71875 -9.523438 -12.457031 -8.109375 -13.84375 C -6.703125 -15.238281 -6 -17.191406 -6 -19.703125 C -6 -21.660156 -6.203125 -23.507812 -6.609375 -25.25 C -7.015625 -26.988281 -7.660156 -28.800781 -8.546875 -30.6875 L -1.703125 -30.6875 C -0.929688 -29.144531 -0.359375 -27.492188 0.015625 -25.734375 C 0.390625 -23.972656 0.578125 -21.828125 0.578125 -19.296875 Z M 0.578125 -19.296875 "/></g></g></g><g fill="#000000" fill-opacity="1"><g transform="translate(146.1815, 338.732038)"><g><path d="M -16.265625 -2.375 C -21.378906 -2.375 -26.164062 -3.125 -30.625 -4.625 C -35.09375 -6.125 -39.007812 -8.28125 -42.375 -11.09375 L -42.375 -15.796875 C -38.644531 -13.015625 -34.546875 -10.921875 -30.078125 -9.515625 C -25.617188 -8.117188 -21.03125 -7.421875 -16.3125 -7.421875 C -11.675781 -7.421875 -7.144531 -8.132812 -2.71875 -9.5625 C 1.695312 -10.988281 5.734375 -13.046875 9.390625 -15.734375 L 9.390625 -11.09375 C 6.109375 -8.257812 2.273438 -6.097656 -2.109375 -4.609375 C -6.492188 -3.117188 -11.210938 -2.375 -16.265625 -2.375 Z M -16.265625 -2.375 "/></g></g><g transform="translate(146.1815, 321.169037)"><g><path d="M 0 -32.46875 L -13.484375 -27.1875 L -13.484375 -10.203125 L 0 -4.984375 L 0 0 L -42.546875 -16.75 L -42.546875 -20.890625 L 0 -37.5625 Z M -17.90625 -25.65625 L -31.046875 -20.71875 C -32.703125 -20.082031 -34.738281 -19.425781 -37.15625 -18.75 C -35.300781 -18.320312 -33.265625 -17.710938 -31.046875 -16.921875 L -17.90625 -11.9375 Z M -17.90625 -25.65625 "/></g></g><g transform="translate(146.1815, 283.608559)"><g><path d="M -42.375 -5.828125 L -42.375 -17.796875 C -42.375 -23.421875 -41.53125 -27.488281 -39.84375 -30 C -38.164062 -32.507812 -35.507812 -33.765625 -31.875 -33.765625 C -29.363281 -33.765625 -27.289062 -33.0625 -25.65625 -31.65625 C -24.03125 -30.257812 -22.972656 -28.21875 -22.484375 -25.53125 L -22.203125 -25.53125 C -21.097656 -31.96875 -17.71875 -35.1875 -12.0625 -35.1875 C -8.269531 -35.1875 -5.3125 -33.90625 -3.1875 -31.34375 C -1.0625 -28.78125 0 -25.203125 0 -20.609375 L 0 -5.828125 Z M -24.234375 -10.75 L -24.234375 -18.875 C -24.234375 -22.34375 -24.773438 -24.84375 -25.859375 -26.375 C -26.953125 -27.90625 -28.796875 -28.671875 -31.390625 -28.671875 C -33.765625 -28.671875 -35.476562 -27.816406 -36.53125 -26.109375 C -37.582031 -24.410156 -38.109375 -21.707031 -38.109375 -18 L -38.109375 -10.75 Z M -20.0625 -10.75 L -4.203125 -10.75 L -4.203125 -19.59375 C -4.203125 -23.007812 -4.863281 -25.582031 -6.1875 -27.3125 C -7.507812 -29.039062 -9.582031 -29.90625 -12.40625 -29.90625 C -15.03125 -29.90625 -16.960938 -29.019531 -18.203125 -27.25 C -19.441406 -25.488281 -20.0625 -22.800781 -20.0625 -19.1875 Z M -20.0625 -10.75 "/></g></g><g transform="translate(146.1815, 245.149643)"><g><path d="M -16.265625 -15.1875 C -11.179688 -15.1875 -6.445312 -14.4375 -2.0625 -12.9375 C 2.320312 -11.4375 6.140625 -9.28125 9.390625 -6.46875 L 9.390625 -1.828125 C 5.753906 -4.515625 1.722656 -6.570312 -2.703125 -8 C -7.140625 -9.425781 -11.675781 -10.140625 -16.3125 -10.140625 C -21.03125 -10.140625 -25.617188 -9.4375 -30.078125 -8.03125 C -34.546875 -6.632812 -38.644531 -4.546875 -42.375 -1.765625 L -42.375 -6.46875 C -38.988281 -9.300781 -35.0625 -11.460938 -30.59375 -12.953125 C -26.125 -14.441406 -21.347656 -15.1875 -16.265625 -15.1875 Z M -16.265625 -15.1875 "/></g></g></g></g></g><g clip-path="url(#d8339cc279)"><g mask="url(#84986be70f)"><g transform="matrix(1, 0, 0, 1, 42, 3372)"><g clip-path="url(#c9ab36aadf)"><g clip-path="url(#297b5bbbd6)"><path stroke-linecap="butt" transform="matrix(0.749945, 0, 0, 0.749945, 3.013148, 0.503463)" fill="none" stroke-linejoin="miter" d="M -0.00190589 4.000884 L 3182.241123 4.000884 " stroke="#000000" stroke-width="8" stroke-opacity="1" stroke-miterlimit="4"/></g></g></g></g></g></svg>